<mxfile host="app.diagrams.net" modified="2024-07-10T06:56:29.759Z" agent="Mozilla/5.0 (Windows NT 10.0; Win64; x64) AppleWebKit/537.36 (KHTML, like Gecko) Chrome/126.0.0.0 Safari/537.36 Avast/126.0.0.0" version="24.2.1" etag="Xjd_aYtVSm12eFS_Z5FT" type="github">
  <diagram name="Page-1" id="Sdmv3YZEce-zZ9c6VDTf">
    <mxGraphModel>
      <root>
        <mxCell id="0" />
        <mxCell id="1" parent="0" />
      </root>
    </mxGraphModel>
  </diagram>
</mxfile>
